<svg class="svg-icon" style="width: 1em; height: 1em;vertical-align: middle;fill: currentColor;overflow: hidden;" viewBox="0 0 1024 1024" version="1.1" xmlns="http://www.w3.org/2000/svg"><path d="M754 958.5H162c-52.9 0-96-43.1-96-96v-592c0-52.9 43.1-96 96-96h592c52.9 0 96 43.1 96 96v592c0 52.9-43.1 96-96 96z m-592-720c-17.6 0-32 14.4-32 32v592c0 17.6 14.4 32 32 32h592c17.6 0 32-14.4 32-32v-592c0-17.6-14.4-32-32-32H162z"  /><path d="M500.8 669.8l-93.5 93.5c-21.5 21.5-50.1 33.4-80.6 33.4s-59-11.8-80.6-33.4c-21.5-21.5-33.4-50.1-33.4-80.6 0-30.4 11.8-59 33.4-80.6l76.8-76.8c12.5-12.5 32.8-12.5 45.3 0s12.5 32.8 0 45.3l-76.8 76.8c-9.4 9.4-14.6 22-14.6 35.3s5.2 25.9 14.6 35.3c9.4 9.4 22 14.6 35.3 14.6s25.9-5.2 35.3-14.6l93.5-93.5c17-17 19.5-43.7 6-63.4-10-14.6-6.3-34.5 8.3-44.5 14.6-10 34.5-6.3 44.5 8.3 30.9 45.2 25.2 106.2-13.5 144.9z"  /><path d="M669.8 530.8L593 607.6c-12.5 12.5-32.8 12.5-45.3 0s-12.5-32.8 0-45.3l76.8-76.8c9.4-9.4 14.6-22 14.6-35.3s-5.2-25.9-14.6-35.3c-19.5-19.5-51.1-19.5-70.6 0l-93.5 93.5c-17 17-19.5 43.7-6 63.4 10 14.6 6.3 34.5-8.3 44.5-5.5 3.8-11.8 5.6-18 5.6-10.2 0-20.2-4.9-26.4-13.9-30.9-45.2-25.2-106.1 13.5-144.8l93.5-93.5c44.4-44.4 116.7-44.4 161.1 0 21.5 21.5 33.4 50.1 33.4 80.6 0 30.4-11.9 59-33.4 80.5z"  /><path d="M862 66.5H270c-52.9 0-96 43.1-96 96v4.6h64v-4.6c0-17.6 14.4-32 32-32h592c17.6 0 32 14.4 32 32v592c0 17.6-14.4 32-32 32h-4.3v64h4.3c52.9 0 96-43.1 96-96v-592c0-52.9-43.1-96-96-96z"  /></svg>